<svg t="1735190842416" class="icon" viewBox="0 0 1024 1024" version="1.1" xmlns="http://www.w3.org/2000/svg" p-id="1235" width="200" height="200"><path d="M831.42277666 192.57722334c-174.10296445-174.10296445-460.53042099-174.10296445-634.63338545 0s-174.10296445 460.53042099 0 634.63338545 460.53042099 174.10296445 634.63338545 0S1005.52574112 372.29641191 831.42277666 192.57722334zM668.55226221 630.64274609c11.23244912 11.23244912 11.23244912 28.08112325 0 39.31357237-11.23244912 11.23244912-28.08112325 11.23244912-39.31357237 0L511.29797187 552.01560049l-117.94071796 117.94071797c-11.23244912 11.23244912-28.08112325 11.23244912-39.31357237 0-11.23244912-11.23244912-11.23244912-28.08112325 0-39.31357237L471.98439951 512.70202813 354.04368154 394.76131016C342.81123242 383.52886104 342.81123242 366.68018691 354.04368154 355.44773779s28.08112325-11.23244912 39.31357237 0L511.29797187 473.38845576l117.94071797-117.94071797c11.23244912-11.23244912 28.08112325-11.23244912 39.31357237 0 11.23244912 11.23244912 11.23244912 28.08112325 0 39.31357237L550.61154424 512.70202813 668.55226221 630.64274609z" fill="#9ca3af" p-id="1236"></path></svg>